<mxfile host="app.diagrams.net" modified="2020-08-25T00:34:43.316Z" agent="5.0 (X11; Linux x86_64) AppleWebKit/537.36 (KHTML, like Gecko) Chrome/84.0.4147.135 Safari/537.36" etag="xlHvZDFyUh6tDWE0cKyx" version="13.6.4" type="github">
  <diagram id="q_LhEmlHeGk1tStUp-2b" name="Page-1">
    <mxGraphModel dx="868" dy="489" grid="1" gridSize="10" guides="1" tooltips="1" connect="1" arrows="1" fold="1" page="1" pageScale="1" pageWidth="850" pageHeight="1100" math="0" shadow="0">
      <root>
        <mxCell id="0" />
        <mxCell id="1" parent="0" />
        <mxCell id="D3PKSzLOLsSn4X89jtCB-23" value="" style="rounded=1;whiteSpace=wrap;html=1;shadow=1;dashed=1;dashPattern=1 2;fillColor=#dae8fc;strokeColor=#6c8ebf;" parent="1" vertex="1">
          <mxGeometry x="184" y="290" width="470" height="313" as="geometry" />
        </mxCell>
        <mxCell id="D3PKSzLOLsSn4X89jtCB-30" style="rounded=0;orthogonalLoop=1;jettySize=auto;html=1;exitX=0.5;exitY=0;exitDx=0;exitDy=0;entryX=0.5;entryY=0;entryDx=0;entryDy=0;shadow=1;endArrow=classic;endFill=1;strokeColor=none;" parent="1" source="D3PKSzLOLsSn4X89jtCB-2" target="D3PKSzLOLsSn4X89jtCB-3" edge="1">
          <mxGeometry relative="1" as="geometry" />
        </mxCell>
        <mxCell id="D3PKSzLOLsSn4X89jtCB-31" style="edgeStyle=none;rounded=1;orthogonalLoop=1;jettySize=auto;html=1;exitX=0.5;exitY=0;exitDx=0;exitDy=0;entryX=0.5;entryY=0;entryDx=0;entryDy=0;shadow=1;endArrow=classic;endFill=1;shape=link;strokeColor=none;" parent="1" source="D3PKSzLOLsSn4X89jtCB-2" target="D3PKSzLOLsSn4X89jtCB-3" edge="1">
          <mxGeometry relative="1" as="geometry" />
        </mxCell>
        <mxCell id="D3PKSzLOLsSn4X89jtCB-48" style="edgeStyle=none;rounded=1;orthogonalLoop=1;jettySize=auto;html=1;exitX=0.5;exitY=0;exitDx=0;exitDy=0;entryX=0;entryY=0.5;entryDx=0;entryDy=0;shadow=1;endArrow=openThin;endFill=0;" parent="1" source="D3PKSzLOLsSn4X89jtCB-2" target="D3PKSzLOLsSn4X89jtCB-32" edge="1">
          <mxGeometry relative="1" as="geometry">
            <Array as="points">
              <mxPoint x="273" y="380" />
            </Array>
          </mxGeometry>
        </mxCell>
        <mxCell id="D3PKSzLOLsSn4X89jtCB-55" style="edgeStyle=none;rounded=1;orthogonalLoop=1;jettySize=auto;html=1;exitX=0;exitY=0.5;exitDx=0;exitDy=0;entryX=1;entryY=0.5;entryDx=0;entryDy=0;shadow=1;endArrow=openThin;endFill=0;fontColor=#EA6B66;" parent="1" source="D3PKSzLOLsSn4X89jtCB-2" target="D3PKSzLOLsSn4X89jtCB-53" edge="1">
          <mxGeometry relative="1" as="geometry" />
        </mxCell>
        <mxCell id="D3PKSzLOLsSn4X89jtCB-2" value="" style="ellipse;whiteSpace=wrap;html=1;fillColor=#fff2cc;strokeColor=#d6b656;shadow=1;" parent="1" vertex="1">
          <mxGeometry x="213" y="415" width="120" height="80" as="geometry" />
        </mxCell>
        <mxCell id="D3PKSzLOLsSn4X89jtCB-49" style="edgeStyle=none;rounded=1;orthogonalLoop=1;jettySize=auto;html=1;exitX=0.5;exitY=0;exitDx=0;exitDy=0;entryX=1;entryY=0.5;entryDx=0;entryDy=0;shadow=1;endArrow=openThin;endFill=0;" parent="1" source="D3PKSzLOLsSn4X89jtCB-3" target="D3PKSzLOLsSn4X89jtCB-32" edge="1">
          <mxGeometry relative="1" as="geometry">
            <Array as="points">
              <mxPoint x="563" y="380" />
            </Array>
          </mxGeometry>
        </mxCell>
        <mxCell id="D3PKSzLOLsSn4X89jtCB-54" style="edgeStyle=none;rounded=1;orthogonalLoop=1;jettySize=auto;html=1;exitX=1;exitY=0.5;exitDx=0;exitDy=0;entryX=0;entryY=0.5;entryDx=0;entryDy=0;shadow=1;endArrow=openThin;endFill=0;fontColor=#EA6B66;" parent="1" source="D3PKSzLOLsSn4X89jtCB-3" target="D3PKSzLOLsSn4X89jtCB-52" edge="1">
          <mxGeometry relative="1" as="geometry" />
        </mxCell>
        <mxCell id="D3PKSzLOLsSn4X89jtCB-3" value="" style="ellipse;whiteSpace=wrap;html=1;fillColor=#fff2cc;strokeColor=#d6b656;shadow=1;" parent="1" vertex="1">
          <mxGeometry x="503" y="415" width="120" height="80" as="geometry" />
        </mxCell>
        <mxCell id="D3PKSzLOLsSn4X89jtCB-4" value="ONLINE" style="text;html=1;strokeColor=none;fillColor=none;align=center;verticalAlign=middle;whiteSpace=wrap;rounded=0;shadow=1;" parent="1" vertex="1">
          <mxGeometry x="253" y="443" width="40" height="20" as="geometry" />
        </mxCell>
        <mxCell id="D3PKSzLOLsSn4X89jtCB-5" value="LOCAL" style="text;html=1;strokeColor=none;fillColor=none;align=center;verticalAlign=middle;whiteSpace=wrap;rounded=0;shadow=1;" parent="1" vertex="1">
          <mxGeometry x="543" y="445" width="40" height="20" as="geometry" />
        </mxCell>
        <mxCell id="ZaeOLOKSQxH11pSMRCt5-12" style="edgeStyle=orthogonalEdgeStyle;rounded=0;orthogonalLoop=1;jettySize=auto;html=1;exitX=0.5;exitY=0;exitDx=0;exitDy=0;entryX=0.5;entryY=1;entryDx=0;entryDy=0;" edge="1" parent="1" source="D3PKSzLOLsSn4X89jtCB-13" target="D3PKSzLOLsSn4X89jtCB-15">
          <mxGeometry relative="1" as="geometry" />
        </mxCell>
        <mxCell id="D3PKSzLOLsSn4X89jtCB-13" value="IMAGE_FILE_UPLOAD" style="rounded=1;whiteSpace=wrap;html=1;dashed=1;fillColor=#dae8fc;strokeColor=#6c8ebf;shadow=1;" parent="1" vertex="1">
          <mxGeometry x="345" y="660" width="150" height="60" as="geometry" />
        </mxCell>
        <mxCell id="D3PKSzLOLsSn4X89jtCB-15" value="SAVE_IMAGE" style="rounded=1;whiteSpace=wrap;html=1;shadow=1;dashed=1;dashPattern=1 2;fillColor=#f8cecc;strokeColor=#b85450;" parent="1" vertex="1">
          <mxGeometry x="360" y="500" width="120" height="60" as="geometry" />
        </mxCell>
        <mxCell id="ZaeOLOKSQxH11pSMRCt5-11" style="edgeStyle=orthogonalEdgeStyle;rounded=0;orthogonalLoop=1;jettySize=auto;html=1;exitX=0;exitY=0.5;exitDx=0;exitDy=0;entryX=0;entryY=0.5;entryDx=0;entryDy=0;" edge="1" parent="1" source="D3PKSzLOLsSn4X89jtCB-24" target="D3PKSzLOLsSn4X89jtCB-15">
          <mxGeometry relative="1" as="geometry">
            <Array as="points">
              <mxPoint x="10" y="240" />
              <mxPoint x="10" y="630" />
              <mxPoint x="390" y="630" />
              <mxPoint x="390" y="580" />
              <mxPoint x="330" y="580" />
              <mxPoint x="330" y="530" />
            </Array>
          </mxGeometry>
        </mxCell>
        <mxCell id="D3PKSzLOLsSn4X89jtCB-24" value="MULTER_ADAPTER" style="rounded=1;whiteSpace=wrap;html=1;shadow=1;dashed=1;fillColor=#f8cecc;strokeColor=#b85450;fontColor=#EA6B66;fontStyle=1" parent="1" vertex="1">
          <mxGeometry x="349" y="210" width="140" height="60" as="geometry" />
        </mxCell>
        <mxCell id="ZaeOLOKSQxH11pSMRCt5-7" style="edgeStyle=orthogonalEdgeStyle;rounded=0;orthogonalLoop=1;jettySize=auto;html=1;exitX=0.5;exitY=1;exitDx=0;exitDy=0;" edge="1" parent="1" source="D3PKSzLOLsSn4X89jtCB-32" target="D3PKSzLOLsSn4X89jtCB-15">
          <mxGeometry relative="1" as="geometry" />
        </mxCell>
        <mxCell id="D3PKSzLOLsSn4X89jtCB-32" value="STORAGE_TYPE&lt;br&gt;PROXY" style="rounded=1;whiteSpace=wrap;html=1;shadow=1;dashed=1;dashPattern=1 2;fillColor=#ffff88;strokeColor=#36393d;" parent="1" vertex="1">
          <mxGeometry x="360" y="350" width="120" height="60" as="geometry" />
        </mxCell>
        <mxCell id="ZaeOLOKSQxH11pSMRCt5-9" style="edgeStyle=orthogonalEdgeStyle;rounded=0;orthogonalLoop=1;jettySize=auto;html=1;exitX=0.5;exitY=1;exitDx=0;exitDy=0;entryX=0.5;entryY=0;entryDx=0;entryDy=0;" edge="1" parent="1" source="D3PKSzLOLsSn4X89jtCB-38" target="D3PKSzLOLsSn4X89jtCB-32">
          <mxGeometry relative="1" as="geometry" />
        </mxCell>
        <mxCell id="D3PKSzLOLsSn4X89jtCB-38" value="&lt;p style=&quot;line-height: 70%&quot;&gt;&lt;font style=&quot;font-size: 8px&quot;&gt;PROCESS.ENV.MODE&lt;/font&gt;&lt;/p&gt;" style="rounded=0;whiteSpace=wrap;html=1;shadow=1;dashed=1;dashPattern=1 4;strokeColor=#FF0F4F;" parent="1" vertex="1">
          <mxGeometry x="369" y="300" width="100" height="30" as="geometry" />
        </mxCell>
        <mxCell id="D3PKSzLOLsSn4X89jtCB-52" value="LOCAL_ADAPTER" style="rounded=1;whiteSpace=wrap;html=1;shadow=1;dashed=1;fillColor=#f8cecc;strokeColor=#b85450;fontColor=#EA6B66;fontStyle=1" parent="1" vertex="1">
          <mxGeometry x="670" y="425" width="140" height="60" as="geometry" />
        </mxCell>
        <mxCell id="D3PKSzLOLsSn4X89jtCB-53" value="AWS_ADAPTER" style="rounded=1;whiteSpace=wrap;html=1;shadow=1;dashed=1;fillColor=#f8cecc;strokeColor=#b85450;fontColor=#EA6B66;fontStyle=1" parent="1" vertex="1">
          <mxGeometry x="20" y="425" width="140" height="60" as="geometry" />
        </mxCell>
        <mxCell id="ZaeOLOKSQxH11pSMRCt5-4" value="&lt;h1 style=&quot;font-size: 19px&quot;&gt;&lt;font style=&quot;font-size: 19px&quot;&gt;STORAGE_TYPE&lt;/font&gt;&lt;/h1&gt;&lt;h1&gt;&lt;span style=&quot;font-weight: 400&quot;&gt;&lt;font style=&quot;font-size: 10px ; line-height: 40%&quot;&gt;RECEBE DOIS SERVICE_STORAGE E RETORNA UM TIPO DE STORAGE DE ACORDO COM PROCESS.ENV.MODE&lt;/font&gt;&lt;/span&gt;&lt;/h1&gt;" style="text;html=1;strokeColor=none;fillColor=none;spacing=5;spacingTop=-20;whiteSpace=wrap;overflow=hidden;rounded=0;" vertex="1" parent="1">
          <mxGeometry x="10" y="36.25" width="220" height="153.5" as="geometry" />
        </mxCell>
        <mxCell id="ZaeOLOKSQxH11pSMRCt5-5" value="&lt;h1&gt;&lt;span style=&quot;font-size: 19px&quot;&gt;SERVICE_TYPE&lt;/span&gt;&lt;/h1&gt;&lt;h1&gt;&lt;span style=&quot;font-size: 10px ; font-weight: 400&quot;&gt;LOCAL E ONLINE, AMBOS IMPLEMENTA A MESMA INTERFACE E RECEBEM UM SERVICE_STORAGE e RETORNAM UM SERVICE TYPE&lt;/span&gt;&lt;/h1&gt;" style="text;html=1;strokeColor=none;fillColor=none;spacing=5;spacingTop=-20;whiteSpace=wrap;overflow=hidden;rounded=0;" vertex="1" parent="1">
          <mxGeometry x="213" y="26.75" width="220" height="160" as="geometry" />
        </mxCell>
        <mxCell id="ZaeOLOKSQxH11pSMRCt5-6" value="&lt;h1&gt;&lt;span style=&quot;font-size: 19px&quot;&gt;SERVICE_TYPE&lt;/span&gt;&lt;/h1&gt;&lt;h1&gt;&lt;span style=&quot;font-size: 10px ; font-weight: 400&quot;&gt;LOCAL E ONLINE, AMBOS IMPLEMENTA A MESMA INTERFACE E RECEBEM UM SERVICE_STORAGE e RETORNAM UM SERVICE TYPE&lt;/span&gt;&lt;/h1&gt;" style="text;html=1;strokeColor=none;fillColor=none;spacing=5;spacingTop=-20;whiteSpace=wrap;overflow=hidden;rounded=0;" vertex="1" parent="1">
          <mxGeometry x="425" y="26.75" width="220" height="160" as="geometry" />
        </mxCell>
      </root>
    </mxGraphModel>
  </diagram>
</mxfile>
